{"title":"Piggy 2012 BRRip 720p x264 AAC - PRiSTiNE [P2PDL]","uid":8260570,"size":630973790,"categoryP":"video","categoryS":"hd___movies","magnet":"?xt=urn:btih:16b4cc2e3a06fc1ccd9111516121e74b6fede814&amp;dn=Piggy+2012+BRRip+720p+x264+AAC+-+PRiSTiNE+%5BP2PDL%5D&amp;tr=udp%3A%2F%2Ftracker.openbittorrent.com%3A80&amp;tr=udp%3A%2F%2Fopen.demonii.com%3A1337&amp;tr=udp%3A%2F%2Ftracker.coppersurfer.tk%3A6969&amp;tr=udp%3A%2F%2Fexodus.desync.com%3A6969","seeders":1,"leechers":0,"uploader":"ValidusVyto","files":-1,"time":1363373093,"description":"_________________________  Visit us at _________________________\n  &lt;a href=&quot;\nhttp://p2pdl.com&quot; rel=&quot;nofollow&quot; target=&quot;_NEW&quot;&gt;\nhttp://p2pdl.com&lt;/a&gt;  ____________________________ &lt;a href=&quot; http://p2pdl.com&quot; rel=&quot;nofollow&quot; target=&quot;_NEW&quot;&gt; http://p2pdl.com&lt;/a&gt;\n\n\nPiggy 2012 BRRip 720p x264 AAC - PRiSTiNE\n\n\nGenre: Thriller \nPlot: Joe, a mild mannered young man is bored by his life. When his beloved brother is murdered Joe\nfinds solace in Piggy, one of his brother's old friends. Piggy helps Joe to cope with grief, intent\non saving him and helping him get justice for his brother's killing. As their friendship grows Joe\nfinds himself in an increasing dangerous and murky world of violence and revenge.\nDirector: Kieron Hawkes\nStars: Paul Anderson, Neil Maskell, Martin Compston.\nRated: N/a\n\n\nInfo: &lt;a href=&quot;\nhttp://www.imdb.com/title/tt1951218/&quot; rel=&quot;nofollow&quot; target=&quot;_NEW&quot;&gt;\nhttp://www.imdb.com/title/tt1951218/&lt;/a&gt;\n\nTrailer:\n\n\nFormat                         : MPEG-4\nFile size                      : 597 MiB\nDuration                       : 1h 46mn\nOverall bit rate               : 785 Kbps\nVideo Format                   : AVC\nVideo Bit rate                 : 699 Kbps\nWidth                          : 1 280 pixels\nHeight                         : 544 pixels\nDisplay aspect ratio           : 2.35:1\nFrame rate mode                : Constant\nFrame rate                     : 24.000 fps\nStream size                    : 531 MiB (89%)\nWriting library                : x264 core 129 r2245\nAudio Format                   : AAC\nAudio Bit rate                 : 83.4 Kbps\nChannel(s)                     : 2 channels\nChannel positions              : Front: L R\nSampling rate                  : 48.0 KHz\nStream size                    : 63.4 MiB (11%)\nLanguage                       : English\nSubtitle                       : N/a\nSource                         : 720p.BluRay.x264-SONiDO(Thanks)\n\nSceenshots:\n &lt;a href=&quot;\nhttp://cdn.piczend.com/images/fa4ddJTG/1363369426_1.jpg&quot; rel=&quot;nofollow&quot; target=&quot;_NEW&quot;&gt;\nhttp://cdn.piczend.com/images/fa4ddJTG/1363369426_1.jpg&lt;/a&gt; &lt;a href=&quot;\nhttp://cdn.piczend.com/images/30Z1lUWv/1363369421_2.jpg&quot; rel=&quot;nofollow&quot; target=&quot;_NEW&quot;&gt;\nhttp://cdn.piczend.com/images/30Z1lUWv/1363369421_2.jpg&lt;/a&gt; &lt;a href=&quot;\nhttp://cdn.piczend.com/images/9ghpHq3J/1363369422_3.jpg&quot; rel=&quot;nofollow&quot; target=&quot;_NEW&quot;&gt;\nhttp://cdn.piczend.com/images/9ghpHq3J/1363369422_3.jpg&lt;/a&gt; &lt;a href=&quot;\nhttp://cdn.piczend.com/images/AeSlJ2Ea/1363369422_4.jpg&quot; rel=&quot;nofollow&quot; target=&quot;_NEW&quot;&gt;\nhttp://cdn.piczend.com/images/AeSlJ2Ea/1363369422_4.jpg&lt;/a&gt; &lt;a href=&quot;\nhttp://cdn.piczend.com/images/t3ZnlpRr/1363369422_5.jpg&quot; rel=&quot;nofollow&quot; target=&quot;_NEW&quot;&gt;\nhttp://cdn.piczend.com/images/t3ZnlpRr/1363369422_5.jpg&lt;/a&gt; &lt;a href=&quot;\nhttp://cdn.piczend.com/images/9BogUsEA/1363369423_6.jpg&quot; rel=&quot;nofollow&quot; target=&quot;_NEW&quot;&gt;\nhttp://cdn.piczend.com/images/9BogUsEA/1363369423_6.jpg&lt;/a&gt;\n\n\n----------------------------------------------------------------------------------------------------\n\n\nEncoded using revolutionary 10bit encoding, which enables us to provide you more crispier \nand sharper images at small sizes, just make sure you follow our instructions without a fault.\nRecommend to you to use latest version of VLC player. Install K-Lite Codec Pack or shark007 codecs\nin case of any kind of problem in playback (For non-VLC Media Player users). Alternatively, install\nCore AVC codecs, the fastest decoder that there is coupled with Community Center Codec Pack and play\non Windows Media Player Classic. Check sample to be sure.\nEnjoy!\n\nGreets to: VYTO, a2zRG, MusiK_KinG, Kuroyukihime, TorDigger, Ash968, StyLishSaLH, Masta and staff members at\nExtraTorrent, TPB, H33T, KAT, 1337x, PublicHD, Ahashare, BTScene,LimeTorrents, TorrentMafia,\nP2PDL, and all others.\n\nEncoder Notes: Encoder Notes: Looking For Early Access To Anything You Can Provide DVDScr, R5, DVDR, BluRay, Direct\nAudio, Music Releases and Seedboxes. We require dedicated servers, so as to do more and fast releases of movies.\nIf You Got anything to offer contact us at &quot;&lt;a class=&quot;__cf_email__&quot; href=&quot;/cdn-cgi/l/email-protection&quot; data-cfemail=&quot;b9c9cbdef9d1cccad197dad6d4&quot;&gt;[email&amp;#160;protected]&lt;/a&gt;&lt;script cf-hash='f9e31' type=&quot;text/javascript&quot;&gt;\n/* &lt;![CDATA[ */!function(){try{var t=&quot;currentScript&quot;in document?document.currentScript:function(){for(var t=document.getElementsByTagName(&quot;script&quot;),e=t.length;e--;)if(t[e].getAttribute(&quot;cf-hash&quot;))return t[e]}();if(t&amp;&amp;t.previousSibling){var e,r,n,i,c=t.previousSibling,a=c.getAttribute(&quot;data-cfemail&quot;);if(a){for(e=&quot;&quot;,r=parseInt(a.substr(0,2),16),n=2;a.length-n;n+=2)i=parseInt(a.substr(n,2),16)^r,e+=String.fromCharCode(i);e=document.createTextNode(e),c.parentNode.replaceChild(e,c)}}}catch(u){}}();/* ]]&gt; */&lt;/script&gt;&quot;.","torrent":{"xt":"urn:btih:16b4cc2e3a06fc1ccd9111516121e74b6fede814","amp;dn":"Piggy+2012+BRRip+720p+x264+AAC+-+PRiSTiNE+%5BP2PDL%5D","amp;tr":["udp%3A%2F%2Ftracker.openbittorrent.com%3A80","udp%3A%2F%2Fopen.demonii.com%3A1337","udp%3A%2F%2Ftracker.coppersurfer.tk%3A6969","udp%3A%2F%2Fexodus.desync.com%3A6969"],"infoHash":"16b4cc2e3a06fc1ccd9111516121e74b6fede814","infoHashBuffer":{"type":"Buffer","data":[22,180,204,46,58,6,252,28,205,145,17,81,97,33,231,75,111,237,232,20]},"announce":[],"urlList":[]}}